<svg width="239" height="24" viewBox="0 0 239 24" fill="none" xmlns="http://www.w3.org/2000/svg">
<g clip-path="url(#clip0)">
<path d="M96.7377 20.9474C95.8016 20.6978 94.1779 19.7378 93.6621 19.1042C93.3755 18.797 92.9362 18.0482 92.6687 17.4722C92.2294 16.5122 92.1721 16.1858 92.1721 14.1122C92.1721 11.885 92.1912 11.7506 92.8025 10.5218C93.5093 9.08179 94.1779 8.40979 95.7061 7.69939C96.6613 7.23859 96.9669 7.2002 99.1446 7.2002C101.838 7.2002 102.793 7.43059 103.137 8.17939C103.424 8.83219 103.405 9.63859 103.08 10.0994C102.832 10.4258 102.564 10.4642 100.329 10.4642C98.1131 10.4642 97.7692 10.5026 97.2917 10.8674C96.432 11.501 96.0691 12.4418 96.0691 14.1122C96.0691 16.013 96.4511 16.8386 97.6164 17.4338C98.4187 17.8562 98.6289 17.8754 100.558 17.7794C102.946 17.645 103.347 17.7986 103.347 18.9314C103.347 19.8722 102.984 20.4866 102.316 20.7554C101.609 21.0242 97.5782 21.1586 96.7377 20.9474Z" fill="black"/>
<path d="M109.938 20.8706C106.614 19.757 105.315 17.5874 105.487 13.5554C105.621 10.5602 106.614 8.8322 108.849 7.7378C109.881 7.2386 110.091 7.2002 112.421 7.2002C114.656 7.2002 115 7.2578 115.822 7.661C117.675 8.5826 118.458 9.773 118.592 11.8466C118.783 14.8226 118.19 15.1682 112.097 15.7634C109.518 15.9938 109.327 16.0898 110.033 16.8578C111.027 17.933 112.498 18.2018 114.962 17.7794C117.102 17.4146 117.006 17.4146 117.369 17.7794C117.713 18.125 117.77 19.4114 117.484 19.9682C117.159 20.5634 115.516 20.9666 112.994 21.0434C111.409 21.101 110.473 21.0434 109.938 20.8706ZM112.173 12.8642C114.771 12.5954 115.077 12.461 114.924 11.6738C114.752 10.829 114.351 10.445 113.376 10.1954C112.288 9.92659 110.817 10.2146 110.244 10.829C110.014 11.0786 109.709 11.6738 109.556 12.173C109.231 13.2098 109.059 13.1714 112.173 12.8642Z" fill="black"/>
<path d="M130.454 20.8706C129.27 20.429 128.601 19.8146 128.047 18.6626L127.513 17.5682L127.455 11.2898L127.398 4.99223L127.876 4.51223C128.277 4.10903 128.525 4.03223 129.461 4.03223C131.142 4.03223 131.429 4.32023 131.429 5.97143V7.29623H133.549C136.262 7.29623 136.395 7.37303 136.395 8.83223C136.395 10.4066 136.147 10.5602 133.473 10.5602H131.41L131.467 13.7282C131.524 16.7234 131.543 16.9154 131.964 17.3186C132.346 17.7218 132.575 17.7602 134.16 17.7602C135.135 17.7602 136.033 17.837 136.166 17.9138C136.415 18.0866 136.491 19.9106 136.243 20.2754C135.918 20.7746 135.077 20.9858 133.167 21.0626C131.753 21.101 130.932 21.0434 130.454 20.8706Z" fill="black"/>
<path d="M182.357 20.928C181.001 20.6784 180.409 20.3904 180.161 19.8528C179.587 18.5856 180.237 17.3376 181.345 17.5488C182.95 17.8752 185.528 18.0864 186.331 17.9712C187.19 17.8368 187.974 17.3184 187.974 16.896C187.974 16.3968 187.114 15.9552 185.204 15.4752C182.472 14.784 181.44 14.3232 180.619 13.4208C179.836 12.5376 179.683 12.0384 179.798 10.656C179.912 9.29283 180.6 8.37123 182.033 7.71843C183.351 7.10403 185.911 6.93123 188.279 7.29603C190.247 7.58403 190.648 7.91043 190.648 9.19683C190.648 10.5408 190.438 10.656 188.509 10.3488C186.56 10.0416 184.573 10.0416 184 10.3488C183.733 10.4832 183.58 10.752 183.58 11.0592C183.58 11.616 183.771 11.6928 186.484 12.384C187.534 12.672 188.814 13.0944 189.311 13.344C191.756 14.592 192.329 17.3952 190.533 19.392C189.445 20.5824 188.279 20.9856 185.586 21.0432C184.325 21.0816 182.873 21.024 182.357 20.928Z" fill="black"/>
<path d="M208.414 20.8322C205.243 19.7762 203.867 17.453 204.058 13.4978C204.192 10.5602 205.205 8.83219 207.421 7.73779C208.452 7.2386 208.662 7.2002 210.993 7.2002C213.228 7.2002 213.572 7.2578 214.393 7.661C216.246 8.5826 217.029 9.77299 217.163 11.8466C217.354 14.8226 216.762 15.1682 210.668 15.7634C209.121 15.8978 208.223 16.0706 208.223 16.205C208.242 16.5506 208.853 17.2226 209.465 17.5298C210.458 18.029 211.661 18.1058 213.534 17.7794C215.673 17.4146 215.578 17.4146 215.941 17.7794C216.284 18.125 216.342 19.4114 216.055 19.9682C215.73 20.5634 214.088 20.9666 211.566 21.0434C209.885 21.101 209.044 21.0434 208.414 20.8322ZM210.744 12.8642C213.342 12.5954 213.648 12.461 213.495 11.6738C213.323 10.829 212.922 10.445 211.948 10.1954C210.859 9.92659 209.388 10.2146 208.815 10.829C208.586 11.0786 208.28 11.6738 208.127 12.173C207.803 13.2098 207.631 13.1714 210.744 12.8642Z" fill="black"/>
<path d="M233.038 20.8706C231.853 20.429 231.185 19.8146 230.631 18.6626L230.096 17.5682L230.038 11.2898L229.981 4.99223L230.459 4.51223C230.86 4.10903 231.108 4.03223 232.044 4.03223C233.725 4.03223 234.012 4.32023 234.012 5.97143V7.29623H236.132C238.845 7.29623 238.979 7.37303 238.979 8.83223C238.979 10.4066 238.73 10.5602 236.056 10.5602H233.993L234.05 13.7282C234.107 16.7234 234.127 16.9154 234.547 17.3186C234.929 17.7218 235.158 17.7602 236.744 17.7602C237.718 17.7602 238.616 17.837 238.75 17.9138C238.998 18.0866 239.074 19.9106 238.826 20.2754C238.501 20.7746 237.661 20.9858 235.75 21.0626C234.337 21.101 233.515 21.0434 233.038 20.8706Z" fill="black"/>
<path d="M36.0283 20.6207C35.7609 20.3711 35.7226 19.3919 35.7226 12.8831C35.7226 2.38075 35.2833 3.01435 42.9627 2.91835C48.8082 2.84155 48.7127 2.82235 48.7127 4.51195C48.7127 6.25915 48.77 6.22075 44.0707 6.33595C41.7974 6.39355 39.8871 6.50875 39.7916 6.58555C39.7152 6.68155 39.6388 7.54555 39.6388 8.50555V10.2719L43.3447 10.3295C47.7002 10.3871 47.7575 10.4063 47.7575 11.9999C47.7575 13.6127 47.7193 13.6319 43.3065 13.6319H39.5433V17.0879C39.5433 21.0815 39.6197 20.9279 37.5565 20.9279C36.6969 20.9279 36.2384 20.8319 36.0283 20.6207Z" fill="black"/>
<path d="M50.7376 20.5056C50.4702 20.1408 50.4319 19.3152 50.4319 15.3024C50.4319 9.88802 50.5466 9.10082 51.5017 8.27522C52.3614 7.50722 53.1828 7.29602 55.8763 7.16162C58.6462 7.02722 58.8373 7.12322 58.8373 8.71682C58.8373 10.2144 58.6271 10.4064 56.6404 10.56C55.3223 10.656 54.902 10.7712 54.6919 11.04C54.5009 11.328 54.4436 12.4224 54.4436 15.84C54.4436 21.12 54.52 20.928 52.3805 20.928C51.1961 20.928 50.9859 20.8704 50.7376 20.5056Z" fill="black"/>
<path d="M63.3265 20.7554C61.3398 20.237 60.3655 18.9314 60.3655 16.7618C60.3846 14.8226 61.3971 13.325 63.0018 12.8642C63.3838 12.7682 64.9694 12.6722 66.5358 12.6722C68.9428 12.6722 69.344 12.6338 69.344 12.3842C69.344 11.7698 68.7327 10.9058 68.1023 10.637C67.2999 10.3106 65.0458 10.2914 63.1928 10.5986C61.8747 10.8098 61.8174 10.8098 61.4735 10.3874C60.8431 9.60023 61.1297 8.10263 61.9893 7.71863C62.7916 7.33463 65.5425 7.04663 67.3954 7.14263C70.2227 7.27703 71.8273 8.17943 72.7061 10.0802C73.1263 10.9826 73.1646 11.2706 73.1646 14.6882C73.1646 18.1058 73.1454 18.413 72.7443 19.2002C71.9802 20.6786 71.5408 20.8322 67.4337 20.8706C65.4851 20.8898 63.6513 20.8322 63.3265 20.7554ZM68.9428 17.8754C69.1147 17.7602 69.2484 17.2418 69.3057 16.5122L69.4013 15.3218L67.0516 15.3986C64.8738 15.4562 64.7019 15.4946 64.3581 15.917C63.8805 16.493 63.8996 17.1842 64.3772 17.6642C64.7019 17.9906 65.0076 18.0482 66.7268 18.0482C67.7966 18.0482 68.79 17.9714 68.9428 17.8754Z" fill="black"/>
<path d="M76.3357 20.621C75.8963 20.1986 75.8963 12.2498 76.3166 10.8098C76.7368 9.3698 77.5583 8.3906 78.8382 7.757C79.9079 7.2194 80.0608 7.2002 82.7161 7.2002C85.3714 7.2002 85.5242 7.2194 86.594 7.757C87.8739 8.3906 88.6953 9.3698 89.1156 10.8098C89.5359 12.2498 89.5358 20.1986 89.0965 20.621C88.7526 20.9666 86.4603 21.0434 85.9636 20.7362C85.7344 20.5826 85.6579 19.7954 85.5815 16.2626C85.5051 12.5378 85.4478 11.9042 85.1422 11.4434C84.2061 10.0226 81.226 10.0226 80.29 11.4434C79.9843 11.9042 79.927 12.5378 79.8506 16.2626C79.7742 19.7954 79.6978 20.5826 79.4686 20.7362C78.9719 21.0434 76.6795 20.9666 76.3357 20.621Z" fill="black"/>
<path d="M138.611 20.5056C138.344 20.1408 138.306 19.3152 138.306 15.264C138.306 12.6336 138.401 10.1184 138.497 9.69602C138.707 8.77442 139.681 7.79522 140.732 7.48802C141.133 7.37282 142.489 7.21922 143.75 7.16162C146.52 7.02722 146.711 7.12322 146.711 8.71682C146.711 10.2144 146.501 10.4064 144.514 10.56C143.196 10.656 142.776 10.7712 142.566 11.04C142.375 11.328 142.317 12.4224 142.317 15.84C142.317 21.12 142.394 20.928 140.254 20.928C139.07 20.928 138.86 20.8704 138.611 20.5056Z" fill="black"/>
<path d="M151.2 20.7554C149.214 20.237 148.239 18.9314 148.239 16.7618C148.258 14.8226 149.271 13.325 150.876 12.8642C151.258 12.7682 152.843 12.6722 154.41 12.6722C156.817 12.6722 157.218 12.6338 157.218 12.3842C157.218 11.7698 156.607 10.9058 155.976 10.637C155.174 10.3106 152.92 10.2914 151.067 10.5986C149.749 10.8098 149.691 10.8098 149.347 10.3874C148.717 9.60023 149.004 8.10263 149.863 7.71863C150.665 7.33463 153.416 7.04663 155.269 7.14263C158.097 7.27703 159.701 8.17943 160.58 10.0802C161 10.9826 161.038 11.2706 161.038 14.6882C161.038 18.1058 161.019 18.413 160.618 19.2002C159.854 20.6786 159.415 20.8322 155.307 20.8706C153.359 20.8898 151.525 20.8322 151.2 20.7554ZM156.817 17.8754C156.989 17.7602 157.122 17.2418 157.18 16.5122L157.275 15.3218L154.925 15.3986C152.748 15.4562 152.576 15.4946 152.232 15.917C151.754 16.493 151.773 17.1842 152.251 17.6642C152.576 17.9906 152.881 18.0482 154.601 18.0482C155.67 18.0482 156.664 17.9714 156.817 17.8754Z" fill="black"/>
<path d="M164.21 20.621C163.77 20.1986 163.77 12.2498 164.19 10.8098C164.611 9.3698 165.432 8.3906 166.712 7.757C167.782 7.2194 167.935 7.2002 170.59 7.2002C173.245 7.2002 173.398 7.2194 174.468 7.757C175.748 8.3906 176.569 9.3698 176.989 10.8098C177.41 12.2498 177.41 20.1986 176.97 20.621C176.626 20.9666 174.334 21.0434 173.837 20.7362C173.608 20.5826 173.532 19.7954 173.455 16.2626C173.379 12.5378 173.322 11.9042 173.016 11.4434C172.08 10.0226 169.1 10.0226 168.164 11.4434C167.858 11.9042 167.801 12.5378 167.724 16.2626C167.648 19.7954 167.572 20.5826 167.342 20.7362C166.846 21.0434 164.553 20.9666 164.21 20.621Z" fill="black"/>
<path d="M194.201 20.5056C193.762 19.872 193.743 6.39365 194.182 4.70405C194.583 3.18725 195.252 2.36165 196.551 1.76645C197.449 1.34405 197.907 1.26725 199.34 1.24805C202.74 1.24805 203.638 1.63205 203.638 3.14885C203.638 4.47365 203.313 4.68485 201.518 4.53125C199.474 4.33925 198.538 4.60805 198.175 5.47205C198.022 5.83685 197.907 6.39365 197.907 6.72005V7.29605H200.028C202.74 7.29605 202.874 7.37285 202.874 8.83205C202.874 10.4064 202.626 10.56 199.97 10.56H197.907V15.4176C197.907 21.1776 198.003 20.928 195.844 20.928C194.66 20.928 194.45 20.8704 194.201 20.5056Z" fill="black"/>
<path d="M219.99 20.5056C219.723 20.1408 219.685 19.3152 219.685 15.264C219.685 12.6336 219.78 10.1184 219.876 9.69602C220.086 8.77442 221.06 7.79522 222.111 7.48802C222.512 7.37282 223.868 7.21922 225.129 7.16162C227.899 7.02722 228.09 7.12322 228.09 8.71682C228.09 10.2144 227.88 10.4064 225.893 10.56C224.575 10.656 224.155 10.7712 223.945 11.04C223.754 11.328 223.696 12.4224 223.696 15.84C223.696 21.12 223.773 20.928 221.633 20.928C220.449 20.928 220.239 20.8704 219.99 20.5056Z" fill="black"/>
<path d="M6.39949 23.7695C5.7882 23.4431 5.53986 23.0207 5.53986 22.2911C5.53986 21.6383 5.99833 21.1391 13.4676 13.6319C20.9369 6.12471 21.4145 5.68311 22.064 5.68311C22.5033 5.68311 22.8854 5.83671 23.1719 6.10551C23.5731 6.50871 23.5922 6.71991 23.6495 10.0415C23.7259 14.0543 23.5922 14.8223 22.7135 15.2831C22.0067 15.6287 21.3763 15.5135 20.8223 14.9375C20.4975 14.5919 20.4402 14.2655 20.4402 12.8831V11.2319L14.289 17.4143C10.8887 20.7935 7.92773 23.6735 7.6985 23.7887C7.18272 24.0575 6.89617 24.0575 6.39949 23.7695Z" fill="#D80210"/>
<path d="M0.859635 18.2016C0.038206 17.76 0 17.568 0 13.44V9.46563L0.477575 9.02403C1.12708 8.40963 2.13954 8.40963 2.73173 8.98563C3.09469 9.35043 3.1711 9.67683 3.22841 11.0784L3.28572 12.7296L9.57061 6.41283C15.5307 0.422435 15.8746 0.115234 16.5432 0.115234C17.7276 0.115234 18.4726 1.30563 17.9377 2.36163C17.6321 2.95683 2.88455 17.8176 2.25416 18.1632C1.64286 18.4896 1.37542 18.4896 0.859635 18.2016Z" fill="#010188"/>
<path d="M50.5084 15.1677C50.5084 12.3645 50.5466 11.2317 50.5657 12.6333C50.6039 14.0157 50.6039 16.3197 50.5657 17.7213C50.5466 19.1037 50.5084 17.9709 50.5084 15.1677Z" fill="#7F7F7F"/>
<path d="M138.382 15.1677C138.382 12.3645 138.42 11.2317 138.439 12.6333C138.478 14.0157 138.478 16.3197 138.439 17.7213C138.42 19.1037 138.382 17.9709 138.382 15.1677Z" fill="#7F7F7F"/>
<path d="M193.991 12.8636C193.991 8.79316 194.01 7.14196 194.029 9.15796C194.068 11.1932 194.068 14.534 194.029 16.55C194.01 18.5852 193.991 16.934 193.991 12.8636Z" fill="#7F7F7F"/>
<path d="M219.761 15.1677C219.761 12.3645 219.799 11.2317 219.818 12.6333C219.857 14.0157 219.857 16.3197 219.818 17.7213C219.799 19.1037 219.761 17.9709 219.761 15.1677Z" fill="#7F7F7F"/>
<path d="M107.149 19.2574L106.499 18.5278L107.225 19.1806C107.875 19.8142 108.028 19.9678 107.875 19.9678C107.836 19.9678 107.512 19.6414 107.149 19.2574Z" fill="#7F7F7F"/>
<path d="M205.816 19.3533L205.262 18.7197L205.892 19.2765C206.465 19.8141 206.599 19.9677 206.446 19.9677C206.408 19.9677 206.141 19.6797 205.816 19.3533Z" fill="#7F7F7F"/>
<path d="M180.008 18.9119C180.008 18.4895 180.046 18.3359 180.084 18.5855C180.122 18.8159 180.122 19.1615 180.084 19.3535C180.027 19.5263 179.989 19.3343 180.008 18.9119Z" fill="#7F7F7F"/>
<path d="M65.9627 18.1055C66.4594 18.0671 67.2617 18.0671 67.7775 18.1055C68.2742 18.1439 67.8539 18.1631 66.8605 18.1631C65.8672 18.1631 65.4469 18.1439 65.9627 18.1055Z" fill="#7F7F7F"/>
<path d="M153.837 18.1055C154.333 18.0671 155.136 18.0671 155.651 18.1055C156.148 18.1439 155.728 18.1631 154.734 18.1631C153.741 18.1631 153.321 18.1439 153.837 18.1055Z" fill="#7F7F7F"/>
<path d="M191.469 16.7996C191.469 16.3772 191.508 16.2236 191.546 16.4732C191.584 16.7036 191.584 17.0492 191.546 17.2412C191.489 17.414 191.45 17.222 191.469 16.7996Z" fill="#7F7F7F"/>
<path d="M127.493 10.9438C127.493 7.62223 127.532 6.25903 127.551 7.92943C127.589 9.58063 127.589 12.307 127.551 13.9774C127.532 15.6286 127.493 14.2654 127.493 10.9438Z" fill="#7F7F7F"/>
<path d="M230.077 10.9438C230.077 7.62223 230.115 6.25903 230.134 7.92943C230.172 9.58063 230.172 12.307 230.134 13.9774C230.115 15.6286 230.077 14.2654 230.077 10.9438Z" fill="#7F7F7F"/>
<path d="M6.49501 13.9196C6.85797 13.5548 7.18272 13.2476 7.24003 13.2476C7.29734 13.2476 7.049 13.5548 6.68604 13.9196C6.32308 14.2844 5.99833 14.5916 5.94102 14.5916C5.88372 14.5916 6.13205 14.2844 6.49501 13.9196Z" fill="#7F7F7F"/>
<path d="M3.11377 11.232C3.11377 10.3872 3.15198 10.0608 3.19018 10.5216C3.22839 10.9632 3.22839 11.6544 3.19018 12.0576C3.15198 12.4416 3.11377 12.0768 3.11377 11.232Z" fill="#7F7F7F"/>
<path d="M9.55147 10.8478C9.91442 10.483 10.2392 10.1758 10.2965 10.1758C10.3538 10.1758 10.1055 10.483 9.7425 10.8478C9.37954 11.2126 9.05479 11.5198 8.99748 11.5198C8.94017 11.5198 9.18851 11.2126 9.55147 10.8478Z" fill="#7F7F7F"/>
<path d="M132.441 10.4253C133.033 10.3869 134.027 10.3869 134.638 10.4253C135.23 10.4637 134.734 10.4829 133.53 10.4829C132.327 10.4829 131.83 10.4637 132.441 10.4253Z" fill="#7F7F7F"/>
<path d="M198.92 10.4253C199.512 10.3869 200.505 10.3869 201.116 10.4253C201.709 10.4637 201.212 10.4829 200.008 10.4829C198.805 10.4829 198.308 10.4637 198.92 10.4253Z" fill="#7F7F7F"/>
<path d="M235.024 10.4253C235.616 10.3869 236.61 10.3869 237.221 10.4253C237.813 10.4637 237.317 10.4829 236.113 10.4829C234.91 10.4829 234.413 10.4637 235.024 10.4253Z" fill="#7F7F7F"/>
<path d="M65.5806 10.2334C65.8672 10.195 66.3256 10.195 66.6313 10.2334C66.9178 10.2718 66.6695 10.3102 66.0964 10.3102C65.5233 10.3102 65.275 10.2718 65.5806 10.2334Z" fill="#7F7F7F"/>
<path d="M153.455 10.2334C153.741 10.195 154.2 10.195 154.505 10.2334C154.792 10.2718 154.543 10.3102 153.97 10.3102C153.397 10.3102 153.149 10.2718 153.455 10.2334Z" fill="#7F7F7F"/>
<path d="M61.1869 9.31185C61.1869 8.88945 61.2251 8.73585 61.2633 8.98545C61.3015 9.21585 61.3015 9.56145 61.2633 9.75345C61.206 9.92625 61.1678 9.73425 61.1869 9.31185Z" fill="#7F7F7F"/>
<path d="M149.061 9.31185C149.061 8.88945 149.099 8.73585 149.137 8.98545C149.175 9.21585 149.175 9.56145 149.137 9.75345C149.08 9.92625 149.042 9.73425 149.061 9.31185Z" fill="#7F7F7F"/>
<path d="M12.6079 7.77552C12.9709 7.41072 13.2956 7.10352 13.3529 7.10352C13.4103 7.10352 13.1619 7.41072 12.799 7.77552C12.436 8.14031 12.1112 8.44751 12.0539 8.44751C11.9966 8.44751 12.245 8.14031 12.6079 7.77552Z" fill="#7F7F7F"/>
<path d="M42.0839 6.20116C43.0964 6.16276 44.7774 6.16276 45.809 6.20116C46.8214 6.22036 45.9809 6.25876 43.9369 6.25876C41.8929 6.25876 41.0523 6.22036 42.0839 6.20116Z" fill="#7F7F7F"/>
<path d="M15.6644 4.70374C16.0274 4.33894 16.3522 4.03174 16.4095 4.03174C16.4668 4.03174 16.2184 4.33894 15.8555 4.70374C15.4925 5.06854 15.1678 5.37574 15.1105 5.37574C15.0531 5.37574 15.3015 5.06854 15.6644 4.70374Z" fill="#7F7F7F"/>
<path d="M128.907 4.08935C129.232 4.05095 129.805 4.05095 130.149 4.08935C130.474 4.12775 130.206 4.16615 129.518 4.16615C128.831 4.16615 128.563 4.12775 128.907 4.08935Z" fill="#7F7F7F"/>
<path d="M231.49 4.08935C231.815 4.05095 232.388 4.05095 232.732 4.08935C233.057 4.12775 232.789 4.16615 232.102 4.16615C231.414 4.16615 231.146 4.12775 231.49 4.08935Z" fill="#7F7F7F"/>
</g>
<defs>
<clipPath id="clip0">
<rect width="238.979" height="24" fill="white"/>
</clipPath>
</defs>
</svg>
