<svg width="88" height="90" viewBox="0 0 88 90" fill="none" xmlns="http://www.w3.org/2000/svg">
<rect width="33" height="12" transform="translate(12 12.0005)" fill="white"/>
<path d="M22.6562 22.5502C22.6602 22.5502 22.6642 22.5444 22.6642 22.5444C22.696 22.5208 22.7279 22.4914 22.7558 22.4561C22.7518 22.4561 22.7478 22.4561 22.7438 22.4502C22.7159 22.4797 22.6841 22.5149 22.6562 22.5502Z" fill="#000091"/>
<path d="M27.0694 21.0634L26.9997 21.1234C27.0396 21.1134 27.0694 21.1034 27.0694 21.0634Z" fill="#000091"/>
<path fill-rule="evenodd" clip-rule="evenodd" d="M25.6426 22.5822C25.7704 22.4537 25.8983 22.3173 26.0261 22.177H26.0222C26.2624 21.9043 26.4948 21.6433 26.7737 21.4056C26.8589 21.3277 26.9402 21.2615 27.0177 21.2069C27.0291 21.1955 27.0349 21.1784 27.0406 21.1617C27.0465 21.1443 27.0523 21.1272 27.0642 21.1173C27.009 21.1384 26.965 21.1717 26.9207 21.2052C26.8749 21.2399 26.8289 21.2747 26.7698 21.2965C26.7466 21.2965 26.7233 21.2731 26.7466 21.2498C26.8279 21.1913 26.9092 21.129 26.9867 21.0667H26.9712C26.948 21.0667 26.948 21.0433 26.948 21.0199C26.6596 20.9741 26.4381 21.1713 26.2399 21.3478L26.2275 21.3589C26.1966 21.3744 26.1675 21.359 26.1446 21.3469C26.133 21.3408 26.123 21.3355 26.1152 21.3355C25.9398 21.3943 25.7885 21.5027 25.6362 21.6119C25.4959 21.7124 25.3548 21.8135 25.1933 21.877V21.8303C25.1384 21.8492 25.0842 21.8739 25.0298 21.8986C24.9498 21.935 24.8696 21.9715 24.7865 21.99C24.6349 22.0252 24.4943 22.0207 24.358 22.0163C24.3133 22.0148 24.2689 22.0134 24.2249 22.0134C23.9768 22.038 23.7319 22.0911 23.4872 22.1442L23.4076 22.1614C23.4037 22.1634 23.3998 22.1644 23.3959 22.1653C23.3921 22.1663 23.3882 22.1673 23.3843 22.1692C23.2371 22.2082 23.1016 22.2627 22.966 22.3407L22.9505 22.3485C22.9452 22.3556 22.9398 22.3619 22.9349 22.3678C22.929 22.3747 22.9237 22.3811 22.9195 22.3874C22.873 22.442 22.8304 22.4887 22.7646 22.5238C22.6673 22.5727 22.5832 22.6481 22.5005 22.7223C22.4647 22.7545 22.429 22.7866 22.3927 22.816C22.385 22.8238 22.3695 22.8277 22.3578 22.8277C22.2378 22.9445 22.1177 23.0615 21.9937 23.1744C21.986 23.1822 21.9511 23.1861 21.924 23.1822C21.924 23.1822 21.9279 23.1822 21.9279 23.1783L21.9395 23.1549L21.9976 23.0614C22.0092 23.0439 22.0199 23.0264 22.0305 23.0088C22.0412 22.9913 22.0518 22.9738 22.0634 22.9562C22.0944 22.9095 22.1255 22.8627 22.1603 22.8199C22.168 22.8082 22.168 22.7965 22.1603 22.7887C22.1525 22.7809 22.1409 22.777 22.1293 22.777C22.2416 22.6679 22.3733 22.5744 22.5089 22.4926V22.4887C22.4934 22.4926 22.4702 22.4809 22.4818 22.4653C22.4932 22.4511 22.5024 22.4347 22.5112 22.4193L22.5205 22.403C22.5225 22.3991 22.5234 22.3962 22.5244 22.3933C22.5254 22.3903 22.5263 22.3874 22.5283 22.3835C22.5263 22.3796 22.5234 22.3767 22.5205 22.3738C22.5176 22.3709 22.5147 22.3679 22.5128 22.364L22.4893 22.3795C22.4612 22.3979 22.4324 22.4168 22.4082 22.4381C22.3911 22.4528 22.3751 22.473 22.3588 22.4937C22.3232 22.5386 22.2857 22.5861 22.23 22.5861C22.2261 22.5861 22.2068 22.5861 22.1952 22.5822C22.1835 22.5822 22.1758 22.5783 22.1719 22.5744C22.1719 22.5725 22.1719 22.5715 22.1724 22.571C22.1729 22.5705 22.1738 22.5705 22.1758 22.5705C22.1758 22.5705 22.1797 22.5666 22.1797 22.5627C22.1797 22.5627 22.1797 22.5588 22.1835 22.5588C22.1855 22.555 22.1874 22.552 22.1893 22.5491C22.1913 22.5462 22.1932 22.5433 22.1952 22.5394C22.1971 22.5355 22.199 22.5325 22.201 22.5296C22.2029 22.5267 22.2048 22.5238 22.2068 22.5199C22.2087 22.5179 22.2097 22.515 22.2106 22.5121C22.2116 22.5092 22.2126 22.5063 22.2145 22.5043L22.2189 22.4963C22.2227 22.4894 22.2273 22.4813 22.23 22.4731C22.2319 22.4692 22.2339 22.4663 22.2358 22.4634C22.2378 22.4605 22.2397 22.4575 22.2416 22.4537C22.2474 22.4459 22.2523 22.4371 22.2571 22.4283C22.262 22.4196 22.2668 22.4108 22.2726 22.403C22.2765 22.3952 22.2804 22.3874 22.2881 22.3796C22.292 22.3718 22.2959 22.365 22.2997 22.3582C22.3036 22.3514 22.3075 22.3446 22.3114 22.3368C22.323 22.3173 22.3114 22.3017 22.2959 22.2978C22.3385 22.2433 22.3888 22.1965 22.4508 22.1614H22.4431C22.4965 22.1346 22.5515 22.1031 22.6062 22.0718C22.6384 22.0533 22.671 22.0346 22.7026 22.0173C22.7142 22.0056 22.7258 21.9939 22.7413 21.9861C22.6135 22.029 22.4973 22.0874 22.385 22.1653C22.385 22.1653 22.354 22.177 22.3462 22.1848C22.3462 22.1848 22.323 22.1926 22.292 22.1653C22.2881 22.1614 22.2881 22.1576 22.2881 22.1498C22.3016 22.1227 22.3293 22.1047 22.3594 22.0854C22.3812 22.0713 22.4041 22.0564 22.4237 22.0368C22.4469 22.0368 22.4663 22.0368 22.4663 22.0602C22.9124 21.7103 23.4625 21.6294 24.0144 21.5482C24.3539 21.4983 24.6941 21.4482 25.0112 21.3355C25.0441 21.3121 25.078 21.2897 25.1119 21.2673C25.1458 21.2449 25.1797 21.2225 25.2126 21.1991C25.2691 21.1756 25.3198 21.1353 25.3734 21.0927C25.4263 21.0505 25.4822 21.0061 25.5496 20.9731C25.7278 20.8368 25.8634 20.6809 25.9331 20.4511C25.9331 20.4277 25.9099 20.4043 25.9099 20.4043C25.6155 20.7199 25.2785 20.9692 24.9182 21.1524C24.5747 21.3336 24.2067 21.3605 23.8423 21.3871C23.7054 21.397 23.569 21.407 23.4347 21.4251C23.4579 21.3783 23.5044 21.3783 23.547 21.3783C23.547 21.323 23.5735 21.2992 23.6075 21.2687C23.6166 21.2605 23.6263 21.2518 23.6361 21.242H23.702C23.7136 21.242 23.7194 21.2303 23.7252 21.2186C23.731 21.2069 23.7368 21.1952 23.7484 21.1952C23.7949 21.1952 23.8608 21.1718 23.8375 21.1718C23.802 21.1262 23.7504 21.1443 23.6934 21.1642C23.6386 21.1834 23.5789 21.2043 23.5238 21.1718C23.5443 21.1494 23.5504 21.1224 23.556 21.0978C23.5621 21.0713 23.5675 21.0476 23.5896 21.0355H23.6787C23.6787 20.9887 23.7252 20.9459 23.7252 20.9459C23.9272 20.8244 24.1223 20.7184 24.3137 20.6143C24.4416 20.5448 24.568 20.4761 24.6936 20.4043C24.6682 20.4043 24.6456 20.4148 24.6238 20.4249C24.589 20.441 24.5558 20.4564 24.5154 20.4277C24.5386 20.4277 24.5386 20.4111 24.5386 20.3946C24.5386 20.378 24.5386 20.3615 24.5619 20.3615C24.7072 20.3226 24.8365 20.2597 24.9686 20.1955C25.0619 20.1501 25.1565 20.1041 25.2591 20.0654C25.2287 20.0654 25.2005 20.0736 25.173 20.0815C25.1201 20.0969 25.0699 20.1115 25.0112 20.0654C25.0266 20.0576 25.039 20.0477 25.0513 20.038C25.076 20.0183 25.1002 19.9991 25.1468 19.9991V19.9329C25.1468 19.9095 25.17 19.9095 25.1933 19.9095C25.17 19.9095 25.1468 19.8861 25.1468 19.8861C25.1591 19.8614 25.1833 19.8563 25.2103 19.8506C25.2343 19.8456 25.2605 19.8401 25.2824 19.8199C25.2591 19.8199 25.2165 19.8199 25.2165 19.7965C25.2824 19.7069 25.3947 19.6835 25.507 19.6602C25.4954 19.6368 25.4731 19.6368 25.4538 19.6368C25.4344 19.6368 25.4179 19.6368 25.4179 19.6134C25.4179 19.59 25.4412 19.59 25.4644 19.59H25.4179C25.3815 19.5717 25.3879 19.539 25.3924 19.5163C25.3936 19.5101 25.3947 19.5046 25.3947 19.5004C25.4857 19.3932 25.5156 19.2667 25.5454 19.1409C25.5599 19.0793 25.5745 19.0178 25.5961 18.9589C25.5729 18.9589 25.5496 18.9589 25.5496 18.9355C25.3318 19.1772 24.9866 19.2688 24.6587 19.3559L24.6277 19.3641H24.5154C24.4031 19.4108 24.2443 19.4108 24.1319 19.3407C24.0785 19.3127 24.0404 19.2776 23.9993 19.2398C23.9718 19.2145 23.9429 19.188 23.9073 19.1615C23.7252 19.0485 23.547 18.9589 23.3456 18.8887C22.7839 18.7095 22.199 18.616 21.6141 18.6394C21.7775 18.5496 21.9509 18.5138 22.1266 18.4776C22.2176 18.4589 22.3093 18.44 22.4004 18.4134C22.458 18.3965 22.515 18.379 22.5716 18.3616C22.8929 18.2631 23.2046 18.1676 23.547 18.1875C23.5022 18.1715 23.4448 18.1773 23.392 18.1826C23.3672 18.1851 23.3434 18.1875 23.3224 18.1875C23.0634 18.1682 22.8019 18.2258 22.529 18.286C22.4712 18.2987 22.4129 18.3116 22.354 18.3238C22.2471 18.3461 22.1455 18.378 22.0437 18.41C21.9315 18.4453 21.8191 18.4806 21.6993 18.503C21.6474 18.521 21.6056 18.5515 21.565 18.5812C21.4996 18.629 21.437 18.6748 21.3391 18.6628V18.5926C21.5638 18.3199 21.8349 18.0511 22.1952 18.0277C22.5434 17.971 22.8717 18.0114 23.2142 18.0535C23.2718 18.0606 23.3297 18.0677 23.3882 18.0745C23.669 18.0971 23.9317 18.1597 24.2148 18.2272L24.2443 18.2342C24.3062 18.2342 24.3411 18.2888 24.3748 18.3416C24.4023 18.3845 24.429 18.4263 24.4689 18.4368C24.5241 18.4558 24.5792 18.4594 24.6344 18.4629C24.7148 18.4681 24.7952 18.4733 24.8756 18.5264C24.8756 18.5107 24.873 18.4954 24.8704 18.4802C24.8653 18.4504 24.8602 18.4211 24.8756 18.39C24.9256 18.3398 24.9829 18.3533 25.0393 18.3665C25.0834 18.3769 25.127 18.3872 25.1662 18.3667C25.289 18.2904 25.1738 18.1734 25.0585 18.0563C25.0029 17.9998 24.9472 17.9433 24.9182 17.8914C24.9182 17.868 24.9415 17.8446 24.9415 17.8446C24.9924 17.8902 25.0398 17.9374 25.0867 17.9842C25.2043 18.1013 25.3194 18.2158 25.4799 18.2965C25.5922 18.3433 25.8634 18.4095 25.8169 18.2732C25.7373 18.0966 25.6014 17.9434 25.4642 17.7888C25.4077 17.7251 25.351 17.6612 25.2979 17.5953V17.5056C25.2625 17.5056 25.2541 17.4922 25.2435 17.4754C25.2402 17.4701 25.2367 17.4645 25.232 17.4589V17.3693C25.1752 17.3395 25.1625 17.2923 25.1497 17.2448C25.1424 17.2178 25.1351 17.1907 25.1197 17.1667C25.0808 17.1038 25.0781 17.0263 25.0752 16.9465C25.0729 16.883 25.0705 16.818 25.0499 16.7576C25.0035 16.6212 24.9841 16.5082 24.9609 16.3719C24.9356 16.2324 24.9079 16.099 24.8807 15.9684C24.8328 15.7379 24.7866 15.5162 24.7594 15.2849C24.7236 14.9543 24.8905 14.6747 25.0612 14.3889C25.1118 14.3042 25.1627 14.2189 25.2088 14.1316C25.3676 13.8589 25.5458 13.5901 25.8401 13.407C25.9044 13.141 26.0791 12.9195 26.253 12.699L26.2662 12.6823C26.4379 12.4684 26.7245 12.3376 26.9357 12.2412L26.9596 12.2304C27.2734 12.0901 27.5561 12.0005 27.56 12.0005H12V23.9965H23.0396C23.3348 23.7825 23.6283 23.6474 23.9775 23.4867C24.1369 23.4134 24.3079 23.3347 24.496 23.2407C24.5359 23.2206 24.5832 23.1973 24.6357 23.1715C24.951 23.0164 25.4534 22.7692 25.6426 22.5822ZM22.1396 20.9638C22.0958 20.9682 22.0494 20.9728 22.0669 20.9377C22.0832 20.8588 22.1639 20.8352 22.2428 20.8121C22.2765 20.8022 22.31 20.7924 22.3378 20.7784L22.3505 20.7718L22.3598 20.7669C22.4035 20.7437 22.457 20.7153 22.4965 20.7318C22.5231 20.7697 22.5561 20.7794 22.5881 20.7889C22.612 20.796 22.6353 20.8029 22.6551 20.8211C22.5714 20.9052 22.4737 20.9134 22.3747 20.9218C22.3089 20.9274 22.2425 20.9331 22.1791 20.961C22.1678 20.961 22.1538 20.9624 22.1396 20.9638ZM18.7126 20.4159C18.7126 20.4393 18.7359 20.4627 18.7359 20.4627C19.2782 19.851 19.7701 19.3289 20.4673 18.8964C20.486 18.8886 20.4791 18.8984 20.4698 18.9114C20.4561 18.9307 20.4373 18.9572 20.4906 18.9432C20.7214 18.8906 20.8251 18.6928 20.9259 18.5004C20.952 18.4507 20.9779 18.4013 21.0058 18.3549C21.1115 18.1828 21.2618 18.0726 21.4132 17.9615C21.5223 17.8814 21.6321 17.8009 21.7262 17.6964C21.7262 17.7198 21.7262 17.7432 21.703 17.7666C21.7262 17.7899 21.7495 17.7899 21.7727 17.7899C21.8136 17.7591 21.8582 17.7464 21.901 17.7341C21.9555 17.7185 22.007 17.7038 22.0439 17.6536C21.8657 17.5835 21.6372 17.5601 21.459 17.6302C20.9864 17.8562 20.5836 18.2185 20.2001 18.6276C19.9677 18.8731 19.7275 19.1029 19.4331 19.2627C19.2317 19.6679 19.007 20.0302 18.7126 20.4159ZM20.6037 18.9669C20.5916 18.9913 20.5794 19.0039 20.5678 19.0161C20.5573 19.0271 20.5471 19.0377 20.5379 19.0562C20.5147 19.1028 20.4915 19.1222 20.4489 19.1455C20.4257 19.1455 20.4025 19.1455 20.4025 19.1222C20.4257 19.0329 20.4915 18.9436 20.5805 18.9203C20.6037 18.9242 20.6037 18.9475 20.6037 18.9669ZM21.5942 22.4269C21.6136 22.4074 21.6368 22.384 21.6484 22.3606C21.6677 22.3139 21.5478 22.3256 21.5284 22.3373C21.5109 22.3514 21.4997 22.3655 21.4862 22.3826L21.482 22.3879C21.4659 22.4065 21.447 22.4237 21.4278 22.4411C21.4148 22.453 21.4016 22.4649 21.3891 22.4775C21.3349 22.5321 21.2808 22.5866 21.2227 22.6372C21.184 22.6723 21.3078 22.6879 21.3349 22.6645C21.3659 22.6411 21.393 22.6139 21.4201 22.5866C21.4304 22.5866 21.4407 22.5849 21.4476 22.5837L21.4523 22.583L21.4549 22.5827C21.5191 22.5612 21.5668 22.5165 21.6132 22.4731L21.6252 22.4619C21.6407 22.4463 21.6213 22.4308 21.5942 22.4269ZM21.244 22.1735C21.2436 22.1736 21.2433 22.1737 21.243 22.1739C21.2426 22.1744 21.2426 22.1754 21.2426 22.1773C21.2188 22.1936 21.1953 22.2102 21.1719 22.2268C21.1114 22.2696 21.0512 22.3122 20.9869 22.3487C20.9255 22.3834 20.8625 22.4133 20.7989 22.4434C20.7623 22.4608 20.7255 22.4783 20.6886 22.4968C20.6886 22.4968 20.6886 22.4929 20.6848 22.4929C20.677 22.4812 20.6615 22.4773 20.646 22.4851C20.5608 22.5319 20.4872 22.5942 20.4214 22.6604C20.4097 22.6682 20.3981 22.6799 20.3904 22.6916L20.3555 22.7267V22.7306C20.34 22.7461 20.3245 22.7617 20.3052 22.7851C20.3011 22.7892 20.298 22.7932 20.2951 22.7971C20.2895 22.8044 20.2843 22.8112 20.2742 22.8163C20.2587 22.8241 20.2199 22.8241 20.2238 22.8007V22.7968C20.2122 22.8046 20.1967 22.8124 20.1851 22.8163C20.1793 22.8202 20.1735 22.8231 20.1677 22.826C20.1618 22.8289 20.156 22.8319 20.1502 22.8358C20.1463 22.8319 20.1386 22.8319 20.1347 22.8319C20.1309 22.8319 20.1231 22.8319 20.1192 22.8358C20.1102 22.8435 20.1012 22.8509 20.0921 22.8583C20.074 22.873 20.056 22.8877 20.0379 22.9059C19.9914 22.9487 19.9488 22.9955 19.9062 23.0461C19.9062 23.0461 19.9062 23.05 19.9023 23.05C19.9023 23.052 19.9013 23.053 19.9004 23.0539C19.8994 23.0549 19.8984 23.0559 19.8984 23.0578L19.8907 23.0656C19.8892 23.0671 19.8883 23.0686 19.8875 23.0699C19.8863 23.0719 19.8853 23.0734 19.8829 23.0734L19.8791 23.0773C19.8752 23.0851 19.8713 23.0929 19.8636 23.1007C19.8597 23.1046 19.852 23.1085 19.8442 23.1085C19.8403 23.1046 19.8365 23.1007 19.8365 23.0968C19.8345 23.0948 19.8336 23.0929 19.8326 23.0909C19.8316 23.089 19.8307 23.087 19.8287 23.0851C19.8248 23.0793 19.8219 23.0734 19.819 23.0676C19.8161 23.0617 19.8132 23.0559 19.8094 23.05V23.0461C19.8094 23.0442 19.8084 23.0422 19.8074 23.0403C19.8064 23.0383 19.8055 23.0364 19.8055 23.0345L19.8752 22.9526L19.8791 22.9487C19.8829 22.9448 19.8868 22.94 19.8907 22.9351C19.8946 22.9302 19.8984 22.9254 19.9023 22.9215C19.9081 22.9137 19.9149 22.9059 19.9217 22.8981C19.9285 22.8903 19.9352 22.8825 19.9411 22.8747C19.943 22.8708 19.9449 22.8679 19.9469 22.865C19.9488 22.8621 19.9507 22.8591 19.9527 22.8552C19.9759 22.8241 19.9992 22.7929 20.0224 22.7578V22.7539C20.0263 22.75 20.0301 22.7461 20.0301 22.7384C20.0418 22.7228 20.0534 22.7072 20.0611 22.6916L20.0844 22.6448V22.6409L20.0882 22.6371C20.0882 22.6351 20.0892 22.6341 20.0902 22.6332C20.0912 22.6322 20.0921 22.6312 20.0921 22.6293C20.096 22.6195 20.0999 22.6108 20.1037 22.602C20.1076 22.5932 20.1115 22.5845 20.1154 22.5747V22.5708L20.1192 22.5552C20.1212 22.5513 20.1221 22.5474 20.1231 22.5435C20.1241 22.5396 20.125 22.5358 20.127 22.5319V22.528C20.1289 22.5221 20.1299 22.5163 20.1309 22.5104C20.1318 22.5046 20.1328 22.4987 20.1347 22.4929C20.1347 22.489 20.1347 22.4812 20.1309 22.4773C20.1541 22.4345 20.1851 22.3955 20.2199 22.3565C20.218 22.3565 20.2161 22.3575 20.2141 22.3585C20.213 22.359 20.2119 22.3596 20.2108 22.36C20.21 22.3603 20.2092 22.3604 20.2083 22.3604C20.1911 22.3713 20.1762 22.3857 20.1611 22.4004C20.1491 22.4122 20.1369 22.4241 20.1231 22.4345C20.0999 22.4539 20.0534 22.4228 20.0844 22.3994C20.1037 22.3838 20.1192 22.3682 20.1347 22.3527C20.1347 22.3527 20.1347 22.3487 20.1386 22.3487C20.154 22.3348 20.1689 22.3189 20.1838 22.303C20.2064 22.2789 20.2292 22.2545 20.2548 22.2358C20.2819 22.2163 20.3013 22.2007 20.3245 22.1812C20.3284 22.1773 20.3323 22.1734 20.3362 22.1734C20.3516 22.1539 20.3671 22.1345 20.3865 22.115C20.3865 22.115 20.3904 22.115 20.3904 22.1111C20.5234 21.9821 20.7103 21.9366 20.9011 21.8901C21.0214 21.8608 21.1433 21.8312 21.2542 21.7799C21.3168 21.7539 21.3866 21.7641 21.4556 21.7742C21.5104 21.7823 21.5647 21.7903 21.6144 21.7799C21.6803 21.7799 21.75 21.7799 21.8158 21.8267C21.6627 21.9082 21.5165 22.0015 21.3719 22.0938C21.33 22.1205 21.2882 22.1472 21.2464 22.1734C21.2454 22.1734 21.2446 22.1734 21.244 22.1735ZM21.7281 20.5856C21.7099 20.5877 21.6982 20.589 21.7082 20.5991C21.7741 20.6654 21.9097 20.642 22.0026 20.5913C22.0685 20.5446 22.1382 20.5446 22.2273 20.5446C22.2505 20.5446 22.2505 20.5017 22.2505 20.4784C22.3164 20.5017 22.3629 20.5017 22.4287 20.5017C22.9671 20.3887 23.4862 20.2758 23.982 20.0264C23.4803 19.6388 22.8618 19.4661 22.256 19.297C22.1555 19.2689 22.0554 19.241 21.9561 19.2121C21.978 19.2121 21.9998 19.2194 22.0217 19.2267C22.066 19.2415 22.1109 19.2564 22.1576 19.2121C22.0961 19.1631 22.0277 19.1537 21.9599 19.1444C21.9038 19.1368 21.8482 19.1291 21.7973 19.0991C21.8026 19.0991 21.809 19.1004 21.8158 19.1017C21.839 19.1062 21.8685 19.1118 21.8864 19.0758C21.7688 19.0166 21.6511 18.9965 21.5323 18.9762C21.4712 18.9658 21.4098 18.9553 21.348 18.9394C21.4603 18.916 21.5301 18.8264 21.5301 18.7134C21.5301 18.6901 21.4836 18.6901 21.4603 18.6901C21.1931 18.8264 21.011 19.0758 20.8987 19.368C20.9999 19.4276 21.1091 19.4207 21.2161 19.4139C21.2769 19.4101 21.3369 19.4063 21.3945 19.4147C21.3437 19.463 21.2703 19.4761 21.1997 19.4887C21.1734 19.4934 21.1475 19.498 21.1233 19.5043C21.0536 19.5199 20.9878 19.5706 21.011 19.6173C21.0265 19.6368 21.042 19.6446 21.0614 19.6485C21.011 19.6641 20.9645 19.6875 20.9219 19.7303C20.9857 19.7805 21.0514 19.7708 21.1163 19.7613C21.1421 19.7575 21.1677 19.7537 21.1931 19.7537C21.1931 19.782 21.2116 19.7916 21.2309 19.8016C21.2409 19.8067 21.251 19.812 21.2589 19.8199C21.1466 19.8628 21.0575 19.9563 21.0342 20.0225C21.0065 20.09 20.9552 20.1339 20.9044 20.1773C20.8701 20.2066 20.8361 20.2358 20.8096 20.2719V20.342C20.7347 20.4083 20.6578 20.4676 20.582 20.526C20.4262 20.646 20.2748 20.7626 20.155 20.9303C20.1782 20.9303 20.1782 20.9537 20.1782 20.9771C20.1568 21.0094 20.1263 21.0318 20.0974 21.053C20.0636 21.0778 20.0319 21.1011 20.0194 21.1368C20.0194 21.1602 20.0194 21.1835 20.0426 21.1835C20.1848 21.1366 20.3077 21.0575 20.4283 20.9799C20.5377 20.9096 20.6452 20.8405 20.7631 20.7978C20.8595 20.7746 20.9434 20.7309 21.0253 20.6883C21.0948 20.6521 21.1628 20.6167 21.2357 20.5952C21.2918 20.5835 21.3538 20.567 21.4158 20.5504C21.4778 20.5339 21.5397 20.5173 21.5959 20.5056C21.5959 20.529 21.5959 20.5524 21.6192 20.5524H21.7973C21.7864 20.5789 21.7518 20.5828 21.7281 20.5856Z" fill="#000091"/>
<path d="M45 12.0005H32.0966C32.0966 12.0005 32.12 12.0044 32.2175 12.0551C32.3228 12.1097 32.4594 12.1838 32.5413 12.2268C32.709 12.3126 32.8689 12.4218 32.9743 12.5896C33.0211 12.6559 33.0874 12.7924 33.0445 12.8822C32.9977 12.9953 32.9743 13.1786 32.8611 13.2216C32.7246 13.2918 32.5452 13.2918 32.3853 13.2684C32.2955 13.2684 32.2058 13.245 32.1122 13.2216C32.4516 13.3581 32.7714 13.518 32.9977 13.834C33.0211 13.8809 33.1108 13.9004 33.2005 13.9004C33.2239 13.9004 33.2239 13.9472 33.2239 13.9667C33.1771 14.0135 33.1342 14.0369 33.1576 14.1032H33.2239C33.337 14.0564 33.3136 13.8301 33.4735 13.9004C33.5867 13.9667 33.6335 14.1266 33.5633 14.2398C33.4735 14.3295 33.3838 14.3997 33.2902 14.466C33.2668 14.5128 33.2668 14.5792 33.2902 14.626C33.3565 14.7157 33.3799 14.8054 33.4033 14.8991C33.4735 15.059 33.493 15.2385 33.5633 15.3984C33.653 15.7378 33.7427 16.0772 33.7232 16.4205C33.7232 16.6 33.6335 16.7599 33.6998 16.9433C33.7466 17.1227 33.8597 17.2593 33.9494 17.4192C34.0391 17.5558 34.1288 17.6455 34.1991 17.782C34.3356 18.0083 34.5852 18.2346 34.4721 18.5076C34.4058 18.6676 34.1562 18.6442 33.9962 18.7339C33.8597 18.847 33.9728 19.0304 34.043 19.1435C34.1562 19.3464 33.9065 19.4829 33.7466 19.5532C33.7934 19.6234 33.8831 19.6 33.9065 19.6429C33.9299 19.756 34.043 19.8223 33.9728 19.9394C33.8831 20.0759 33.6101 20.1422 33.7466 20.349C33.8363 20.5089 33.7778 20.6845 33.7232 20.8483C33.6569 21.0512 33.4735 21.1409 33.3136 21.1877C33.1771 21.2346 33.0172 21.2346 32.8845 21.2112C32.8377 21.1877 32.7948 21.1643 32.748 21.1643C32.3618 21.1175 31.9757 21.0083 31.5934 21.0083C31.4803 21.0317 31.3672 21.0512 31.2775 21.098C31.176 21.1721 31.0824 21.2541 31.0044 21.3399C31.0044 21.3399 31.0044 21.3399 31.0005 21.3438C30.9849 21.3633 30.9654 21.3789 30.9498 21.3984C30.942 21.4101 30.9303 21.4218 30.9225 21.4335C30.9147 21.4413 30.9108 21.4491 30.903 21.4569C30.8367 21.5388 30.7782 21.6286 30.7236 21.7183C30.7197 21.7261 30.7158 21.73 30.7119 21.7339C30.708 21.7456 30.7002 21.7534 30.6924 21.7651C30.6183 21.9017 30.5636 22.0421 30.5207 22.1825C30.3647 22.7014 30.4349 23.1461 30.5441 23.2554C30.5753 23.2866 31.2931 23.5089 31.7924 23.7313C32.0264 23.8366 32.1902 23.9147 32.3267 24.0005H44.9961V12.0005H45Z" fill="#E1000F"/>
<path d="M32.8631 16.3752C32.9526 16.3985 33.0888 16.3985 33.0888 16.4453C33.0421 16.6245 32.7736 16.6713 32.6375 16.8544H32.5674C32.5013 16.9011 32.5208 17.0141 32.4546 17.0141C32.3885 16.9907 32.3185 17.0141 32.2523 17.0375C32.3418 17.1271 32.4546 17.1972 32.5908 17.1739C32.6141 17.1739 32.6569 17.2206 32.6569 17.2635C32.6569 17.2635 32.6803 17.2635 32.7036 17.2401C32.727 17.2401 32.7503 17.2401 32.7503 17.2635V17.3531C32.6842 17.4427 32.5674 17.3998 32.478 17.4193C32.6608 17.4661 32.8398 17.4661 32.9993 17.4193C33.1355 17.3726 32.9993 17.1466 33.0888 17.0336C33.0421 17.0336 33.0888 16.9635 33.0421 16.9635C33.0888 16.9167 33.1316 16.8505 33.1782 16.8271C33.2249 16.8271 33.2911 16.8037 33.3144 16.757C33.3144 16.7102 33.2249 16.6907 33.2444 16.644C33.3806 16.5544 33.4934 16.418 33.4467 16.2817C33.4233 16.2115 33.2444 16.2115 33.1316 16.1687C33.0187 16.1258 32.8826 16.1687 32.7464 16.192C32.6336 16.192 32.5208 16.2622 32.4079 16.2817C32.2484 16.3284 32.1123 16.418 31.98 16.5076C32.1395 16.4414 32.2951 16.418 32.478 16.3713C32.6141 16.3752 32.727 16.344 32.8631 16.3752Z" fill="#808080"/>
<path d="M13.236 39.0005H14.94V35.6045H15.816L18.06 39.0005H20.064L17.436 35.2805C18.3 34.8845 18.792 34.1285 18.792 33.1085C18.792 31.5485 17.652 30.6005 15.804 30.6005H13.236V39.0005ZM15.9 32.0165C16.62 32.0165 17.04 32.4485 17.04 33.0845C17.04 33.7685 16.62 34.1885 15.9 34.1885H14.94V32.0165H15.9ZM24.5273 29.8805L26.0873 28.2605H24.3353L22.9793 29.8805H24.5273ZM21.3233 39.0005H26.2193V37.5845H23.0273V35.4245H25.7393V34.0085H23.0273V32.0165H26.2193V30.6005H21.3233V39.0005ZM28.3794 39.0005H30.0834V35.6045H31.1514C32.9994 35.6045 34.1274 34.6565 34.1274 33.1085C34.1274 31.5485 32.9994 30.6005 31.1514 30.6005H28.3794V39.0005ZM31.2234 32.0165C31.9434 32.0165 32.3754 32.4485 32.3754 33.0845C32.3754 33.7685 31.9434 34.1885 31.2234 34.1885H30.0834V32.0165H31.2234ZM40.6705 35.8565C40.6705 36.9845 40.0225 37.6445 38.9785 37.6445C37.9105 37.6445 37.2745 36.9845 37.2745 35.8565V30.6005H35.5705V35.7125C35.5705 37.9205 36.8665 39.2405 38.9665 39.2405C41.0785 39.2405 42.3745 37.9205 42.3745 35.7125V30.6005H40.6705V35.8565ZM44.6713 39.0005H47.3233C49.2553 39.0005 50.4433 38.0645 50.4433 36.5285C50.4433 35.6525 49.9513 34.9325 49.0633 34.5365C49.6513 34.1525 49.9633 33.5645 49.9633 32.8805C49.9633 31.4645 48.8953 30.6005 47.1433 30.6005H44.6713V39.0005ZM47.1793 32.0165C47.8273 32.0165 48.2113 32.3645 48.2113 32.9525C48.2113 33.5645 47.8273 33.9125 47.1793 33.9125H46.3753V32.0165H47.1793ZM47.4193 35.3285C48.2113 35.3285 48.6913 35.7365 48.6913 36.4565C48.6913 37.1645 48.2113 37.5845 47.4193 37.5845H46.3753V35.3285H47.4193ZM52.3719 39.0005H57.2679V37.4525H54.0759V30.6005H52.3719V39.0005ZM58.9476 39.0005H60.6516V30.6005H58.9476V39.0005ZM70.2234 38.7845L69.7194 38.3045C70.7514 37.4885 71.3754 36.2045 71.3754 34.8005C71.3754 32.4005 69.5634 30.3605 66.9234 30.3605C64.2714 30.3605 62.4594 32.4005 62.4594 34.8005C62.4594 37.2005 64.2714 39.2405 66.9234 39.2405C67.3314 39.2405 67.7154 39.1925 68.0754 39.0965L69.0714 39.9845C69.8994 40.7045 70.7634 41.0885 71.6994 41.0885C72.0714 41.0885 72.3114 41.0405 72.5874 40.9325V39.4925C72.4074 39.5645 72.1674 39.5885 71.9874 39.5885C71.4474 39.5885 70.8714 39.3725 70.2234 38.7845ZM66.9234 37.6445C65.3394 37.6445 64.2114 36.4085 64.2114 34.8005C64.2114 33.1925 65.3394 31.9565 66.9234 31.9565C68.4954 31.9565 69.6234 33.1925 69.6234 34.8005C69.6234 36.4085 68.4954 37.6445 66.9234 37.6445ZM78.1424 35.8565C78.1424 36.9845 77.4944 37.6445 76.4504 37.6445C75.3824 37.6445 74.7464 36.9845 74.7464 35.8565V30.6005H73.0424V35.7125C73.0424 37.9205 74.3384 39.2405 76.4384 39.2405C78.5504 39.2405 79.8464 37.9205 79.8464 35.7125V30.6005H78.1424V35.8565ZM82.1432 39.0005H87.0392V37.5845H83.8472V35.4245H86.5592V34.0085H83.8472V32.0165H87.0392V30.6005H82.1432V39.0005ZM13.236 51.0005H14.94V47.4245H17.652V46.0085H14.94V44.0165H18.132V42.6005H13.236V51.0005ZM19.8116 51.0005H21.5156V47.6045H22.3916L24.6356 51.0005H26.6396L24.0116 47.2805C24.8756 46.8845 25.3676 46.1285 25.3676 45.1085C25.3676 43.5485 24.2276 42.6005 22.3796 42.6005H19.8116V51.0005ZM22.4756 44.0165C23.1956 44.0165 23.6156 44.4485 23.6156 45.0845C23.6156 45.7685 23.1956 46.1885 22.4756 46.1885H21.5156V44.0165H22.4756ZM27.2062 51.0005H29.0182L29.8223 48.8165H33.1823L33.9863 51.0005H35.7982L32.6183 42.6005H30.3862L27.2062 51.0005ZM30.3503 47.3645L31.5023 44.2085L32.6543 47.3645H30.3503ZM37.2754 51.0005H38.9794V44.9285L42.7354 51.0005H44.9194V42.6005H43.2154V48.6725L39.4594 42.6005H37.2754V51.0005ZM51.1927 49.6445C49.6087 49.6445 48.4807 48.4085 48.4807 46.8005C48.4807 45.1925 49.6087 43.9565 51.1927 43.9565C52.1527 43.9565 52.9087 44.4245 53.3887 45.1085L54.7327 44.0645C53.9647 43.0445 52.7167 42.3605 51.1927 42.3605C48.5407 42.3605 46.7287 44.4005 46.7287 46.8005C46.7287 48.9365 48.1687 50.7845 50.3527 51.1685L49.2967 52.9325H50.8087L51.8527 51.1925C53.0767 51.0365 54.0847 50.4125 54.7327 49.5245L53.3887 48.4925C52.9087 49.1765 52.1527 49.6445 51.1927 49.6445ZM55.2769 51.0005H57.0889L57.8929 48.8165H61.2529L62.0569 51.0005H63.8689L60.6889 42.6005H58.4569L55.2769 51.0005ZM58.4209 47.3645L59.5729 44.2085L60.7249 47.3645H58.4209ZM65.346 51.0005H67.05V42.6005H65.346V51.0005ZM68.8219 49.8365C69.5659 50.7245 70.5139 51.2405 71.9299 51.2405C73.4779 51.2405 74.7019 50.2925 74.7259 48.7085C74.7259 45.8285 70.9099 46.2605 70.9099 44.7365C70.9099 44.2325 71.3059 43.8485 71.9059 43.8485C72.5419 43.8485 73.0939 44.2685 73.5859 44.9045L74.8339 43.7765C74.1139 42.9245 73.1539 42.3605 71.8939 42.3605C70.2859 42.3605 69.1819 43.4645 69.1819 44.7965C69.1819 47.6405 72.9979 47.2205 72.9979 48.7685C72.9979 49.3685 72.5899 49.7285 71.9179 49.7285C71.2339 49.7285 70.5619 49.3445 70.0579 48.6965L68.8219 49.8365ZM76.6926 51.0005H81.5886V49.5845H78.3966V47.4245H81.1086V46.0085H78.3966V44.0165H81.5886V42.6005H76.6926V51.0005Z" fill="#1E1E1E"/>
<path fill-rule="evenodd" clip-rule="evenodd" d="M43.18 72.6147L42.0638 73.6346H41.7758L42.4359 72.4707H43.18V72.6147ZM42.3759 76.5621H42.1359C41.8358 76.9221 41.4998 77.21 41.1757 77.21C40.8397 77.21 40.6717 77.0061 40.6717 76.5621C40.6717 76.3821 40.6957 76.1901 40.7317 76.0221L42.688 75.3742C43.072 74.4622 42.6159 74.0662 42.0759 74.0662C41.1517 74.0662 40.0956 75.6861 40.0956 76.9821C40.0956 77.594 40.3836 77.93 40.8397 77.93C41.3678 77.918 41.9198 77.402 42.3759 76.5621ZM41.7046 74.5945C41.9686 74.5945 42.1966 74.7985 42.0766 75.2665L40.8644 75.5905C41.0565 75.0145 41.4165 74.5945 41.7046 74.5945ZM37.8886 74.6182H38.5367L37.5045 77.4501C37.4085 77.69 37.5405 77.93 37.7925 77.93C38.5247 77.93 39.4008 77.3061 39.7368 76.4181H39.5568C39.2928 76.7901 38.7167 77.1981 38.2846 77.2701L39.2328 74.6182H40.2049L40.3249 74.2102H39.3768L39.7368 73.1903H39.3648L38.6927 74.2102L37.8886 74.3182V74.6182ZM36.9878 74.0789C37.1198 74.0789 37.2998 74.2229 37.2158 74.4869L36.0516 77.3067C36.3517 77.2587 36.6637 76.9708 36.8438 76.7068H37.0358C36.7597 77.4147 36.1356 77.9307 35.5956 77.9307C35.4636 77.9307 35.2715 77.7867 35.3675 77.5227L36.4477 74.7029C36.1477 74.7509 35.8356 75.0389 35.6556 75.3029H35.4756C35.7516 74.5829 36.4237 74.0789 36.9878 74.0789ZM37.3246 73.3587C37.5647 73.3587 37.7687 73.1667 37.7687 72.9147C37.7687 72.6747 37.5647 72.4707 37.3246 72.4707C37.0726 72.4707 36.8806 72.6747 36.8806 72.9147C36.8806 73.1547 37.0846 73.3587 37.3246 73.3587ZM32.0797 75.6988C32.3437 75.1229 32.2477 74.8589 32.0797 74.8589C31.9357 74.8589 31.7676 75.0149 31.5996 75.3029H31.4196C31.6956 74.6909 32.0557 74.0789 32.4517 74.0789C32.7878 74.0789 32.9078 74.4149 32.9078 74.7869V75.3149C32.9618 75.252 33.0144 75.1903 33.0658 75.1301L33.0667 75.1289L33.0675 75.1281C33.5745 74.5331 33.9617 74.0789 34.408 74.0789C34.7561 74.0789 34.9361 74.2949 34.9361 74.6189C34.9361 74.8109 34.8761 75.0509 34.7441 75.3029L33.7479 77.3067C34.048 77.2587 34.36 76.9708 34.54 76.7068H34.7201C34.444 77.4267 33.7719 77.9307 33.2079 77.9307C32.9558 77.9307 32.8118 77.6667 32.9198 77.4507L34.072 75.2309C34.204 74.9789 34.228 74.8109 34.024 74.8109C33.7479 74.8109 33.0998 75.2669 32.7518 75.6868L31.9957 77.6787C31.9117 77.8827 31.8277 77.9307 31.6356 77.9307C31.3236 77.9307 31.1676 77.7267 31.3116 77.4027L32.0797 75.6988ZM31.2987 74.9302C31.4307 74.4742 31.3587 74.0662 31.0106 74.0662C30.5766 74.0662 30.4407 74.3528 30.02 75.2399L29.9905 75.3022V74.7742C29.9905 74.4022 29.8705 74.0662 29.5344 74.0662C29.1384 74.0662 28.7783 74.6782 28.5023 75.2902H28.6823C28.8743 75.0142 29.0544 74.8462 29.1984 74.8462C29.3664 74.8462 29.4624 75.1102 29.1984 75.6861L28.4303 77.39C28.2863 77.714 28.4423 77.918 28.7543 77.918C28.9464 77.918 29.0304 77.87 29.1144 77.666L29.8705 75.6741C30.0865 75.4102 30.2785 75.1822 30.5186 74.9302H31.2987ZM27.5064 75.2665C27.6264 74.7985 27.3984 74.5945 27.1344 74.5945C26.8463 74.5945 26.4863 75.0145 26.2942 75.5905L27.5064 75.2665ZM27.8057 76.5621H27.5657C27.2656 76.9221 26.9296 77.21 26.6055 77.21C26.2695 77.21 26.1015 77.0061 26.1015 76.5621C26.1015 76.3821 26.1255 76.1901 26.1615 76.0221L28.1178 75.3742C28.5018 74.4622 28.0458 74.0662 27.5057 74.0662C26.5815 74.0662 25.5254 75.6861 25.5254 76.9821C25.5254 77.594 25.8134 77.93 26.2695 77.93C26.7976 77.918 27.3497 77.402 27.8057 76.5621ZM23.9665 74.6182H23.3184V74.3182L24.1225 74.2102L24.7946 73.1903H25.1666L24.8066 74.2102H25.7547L25.6347 74.6182H24.6626L23.7144 77.2701C24.1465 77.1981 24.7226 76.7901 24.9866 76.4181H25.1666C24.8306 77.3061 23.9545 77.93 23.2224 77.93C22.9703 77.93 22.8383 77.69 22.9343 77.4501L23.9665 74.6182ZM19.8865 76.8144C19.8865 75.9384 20.8586 74.7625 21.3987 74.7625C21.5187 74.7625 21.6387 74.7745 21.7347 74.8105L21.1707 76.3224C20.8466 76.7184 20.3425 77.1983 20.1025 77.1983C19.9705 77.1983 19.8865 77.0783 19.8865 76.8144ZM22.5632 73.8866L22.8632 73.9106L21.8191 76.3104C21.567 76.8864 21.675 77.1504 21.8191 77.1504C21.9631 77.1504 22.1431 76.9824 22.3351 76.7064H22.5152C22.2391 77.3184 21.8791 77.9303 21.483 77.9303C21.147 77.9303 20.9429 77.5703 21.0029 76.9224L21.0269 76.6944L20.9616 76.7857C20.5317 77.3866 20.1427 77.9303 19.7428 77.9303C19.3947 77.9303 19.2147 77.7143 19.2147 77.3904C19.2147 75.9984 20.7389 74.2225 22.1671 74.2225H22.2271L22.5632 73.8866ZM19.814 74.9302C19.946 74.4742 19.874 74.0662 19.526 74.0662C19.0919 74.0662 18.956 74.3529 18.5354 75.2399L18.5058 75.3022V74.7742C18.5058 74.4022 18.3858 74.0662 18.0498 74.0662C17.6537 74.0662 17.2937 74.6782 17.0176 75.2902H17.1976C17.3897 75.0142 17.5697 74.8462 17.7017 74.8462C17.8697 74.8462 17.9658 75.1102 17.7017 75.6861L16.9336 77.402C16.7896 77.726 16.9456 77.93 17.2576 77.93C17.4497 77.93 17.5337 77.882 17.6177 77.678L18.3738 75.6861C18.5898 75.4222 18.7819 75.1942 19.0219 74.9422H19.814V74.9302ZM14.8684 77.5693L14.7964 77.7853H12L12.072 77.5573C12.9361 77.4013 13.0802 77.3293 13.4402 76.3574L14.2203 74.2695C14.5684 73.2975 14.4964 73.2255 13.7403 73.0696L13.8123 72.8536H17.4488L17.2328 74.0175H16.9687C16.9687 73.3215 16.8967 73.1416 16.2366 73.1416H16.0686C15.4205 73.1416 15.3365 73.2375 15.1565 73.7415L14.6404 75.1454H15.3965C15.9006 75.1454 16.0926 74.8335 16.3206 74.4255H16.5847L15.9606 76.1294H15.6965C15.7565 75.6134 15.7565 75.4094 15.2885 75.4094H14.5324L14.1843 76.3694C13.8081 77.3685 13.9156 77.3889 14.8115 77.5585C14.8301 77.562 14.8491 77.5656 14.8684 77.5693Z" fill="black"/>
<path fill-rule="evenodd" clip-rule="evenodd" d="M17.2448 63.4346L16.1286 64.239V64.251H15.8405L16.5006 63.2905H17.2448V63.4346ZM25.0472 69.0653L26.8355 64.3109L26.7755 64.2389L25.5393 64.383V64.527L25.7793 64.7071C25.9843 64.8666 25.93 65.0152 25.76 65.481L25.7313 65.5596L24.3631 69.2094C24.2551 69.4255 24.3991 69.6896 24.6511 69.6896C25.2152 69.6896 25.8153 69.1733 26.0914 68.465H25.9114C25.7193 68.7291 25.3353 69.0173 25.0472 69.0653ZM33.2438 65.4035L34.36 64.383V64.2389H33.6159L32.9558 65.4035H33.2438ZM33.315 68.3209H33.5551C33.111 69.1733 32.5589 69.6896 32.0308 69.6896C31.5747 69.6896 31.2867 69.3534 31.2867 68.7411C31.2867 67.4445 32.3429 65.8237 33.267 65.8237C33.7951 65.8237 34.2632 66.2199 33.8791 67.1323L31.9108 67.7806C31.8748 67.9487 31.8508 68.1408 31.8508 68.3209C31.8508 68.7651 32.0188 68.9692 32.3549 68.9692C32.6789 68.9692 33.015 68.6811 33.315 68.3209ZM33.2544 67.0243C33.3745 66.5681 33.1464 66.364 32.8824 66.364C32.6063 66.364 32.2463 66.7842 32.0422 67.3485L33.2544 67.0243ZM29.7258 66.3877H29.0777V66.0875L29.8818 65.9795L30.554 64.959H30.926L30.566 65.9795H31.5141L31.3941 66.3877H30.4219L29.4738 69.041C29.9058 68.969 30.4819 68.5608 30.746 68.1886H30.926C30.59 69.077 29.7138 69.7013 28.9817 69.7013C28.7296 69.7013 28.5976 69.4612 28.6936 69.2211L29.7258 66.3877ZM28.4055 66.2436C28.4775 65.9795 28.3095 65.8354 28.1655 65.8354C27.6014 65.8354 26.9292 66.3517 26.6532 67.06H26.8332C27.0133 66.7959 27.3253 66.5077 27.6254 66.4597L26.5452 69.2811C26.4492 69.5452 26.6412 69.6893 26.7732 69.6893C27.3133 69.6893 27.9374 69.173 28.2135 68.4647H28.0334C27.8534 68.7288 27.5413 69.017 27.2413 69.065L28.4055 66.2436ZM28.9585 64.6831C28.9585 64.9232 28.7544 65.1273 28.5144 65.1273C28.2744 65.1273 28.0703 64.9232 28.0703 64.6831C28.0703 64.443 28.2624 64.2389 28.5144 64.2389C28.7544 64.2389 28.9585 64.443 28.9585 64.6831ZM22.8987 66.532C22.3586 66.532 21.3864 67.7086 21.3864 68.585C21.3864 68.8492 21.4704 68.9692 21.6145 68.9692C21.8425 68.9692 22.3466 68.489 22.6706 68.0928L23.2347 66.5801C23.1267 66.544 23.0187 66.532 22.8987 66.532ZM24.3632 65.6796L24.0632 65.6556L23.7271 65.9918H23.6671C22.2389 65.9918 20.7146 67.7687 20.7146 69.1613C20.7146 69.4855 20.8946 69.7016 21.2427 69.7016C21.6426 69.7016 22.0316 69.1576 22.4616 68.5563L22.5269 68.465L22.5029 68.6931C22.4429 69.3414 22.6469 69.7016 22.983 69.7016C23.3791 69.7016 23.7391 69.0893 24.0152 68.477H23.8351C23.6431 68.7531 23.4631 68.9212 23.3191 68.9212C23.175 68.9212 23.067 68.6571 23.3191 68.0808L24.3632 65.6796ZM18.3135 69.5697C17.7974 69.7738 17.4373 70.0139 17.4373 70.3861C17.4373 70.7342 17.7614 70.8783 18.4335 70.8783C19.3337 70.8783 19.8258 70.6142 19.8258 70.266C19.8258 70.1099 19.6217 70.0379 19.0816 69.8578C18.7336 69.7497 18.4815 69.6537 18.3135 69.5697ZM18.9128 68.0929C18.6728 68.0929 18.5888 67.8888 18.5888 67.6727C18.5888 66.9763 18.9248 66.1119 19.4649 66.1119C19.705 66.1119 19.789 66.316 19.789 66.5321C19.777 67.2405 19.4409 68.0929 18.9128 68.0929ZM19.3701 69.2213C20.0302 69.4254 20.4383 69.5815 20.4383 70.0377C20.4383 70.626 19.3581 71.3224 18.0499 71.3104C17.2937 71.3104 16.6456 71.1063 16.6456 70.614C16.6456 70.1458 17.0777 69.7616 18.1339 69.4495C17.9899 69.3534 17.9299 69.2334 17.9299 69.0653C17.9299 68.7771 18.1939 68.549 18.65 68.3329C18.2059 68.2729 17.9178 67.9367 17.9178 67.4445C17.9178 66.6881 18.542 65.8237 19.5261 65.8237C19.7302 65.8237 19.9102 65.8717 20.0542 65.9677H21.1344L21.0144 66.3759H20.3783C20.4143 66.484 20.4383 66.6041 20.4383 66.7361C20.4383 67.4685 19.8502 68.3089 18.914 68.3569C18.674 68.489 18.554 68.6691 18.554 68.8131C18.554 68.9827 18.7503 69.04 19.1842 69.1667C19.2419 69.1835 19.3039 69.2016 19.3701 69.2213ZM15.5646 67.1684C16.0327 67.1684 16.0447 67.3725 15.9727 67.8888H16.2367L16.8609 66.1839H16.5968C16.3688 66.5921 16.1767 66.9043 15.6726 66.9043H14.6405L15.1446 65.4996C15.3246 64.9953 15.4086 64.8993 16.0567 64.8993H16.5128C17.1729 64.8993 17.2449 65.0794 17.2449 65.7757H17.509L17.725 64.6112H13.8123L13.7403 64.8273C14.4964 64.9833 14.5684 65.0554 14.2204 66.0279L13.4403 68.1289C13.0802 69.1014 12.9362 69.1734 12.06 69.3295L12 69.5576H16.3448L17.1249 68.321H16.8248C16.3208 68.8132 15.8167 69.2695 14.8325 69.2695C13.75 69.2695 13.7693 69.2165 14.0941 68.3239C14.115 68.2665 14.1372 68.2055 14.1604 68.1409L14.5204 67.1804H15.5646V67.1684Z" fill="black"/>
<path fill-rule="evenodd" clip-rule="evenodd" d="M19.1496 56.8881C19.3896 56.8881 19.5936 56.6842 19.5936 56.4443C19.5936 56.2044 19.3896 56.0005 19.1496 56.0005C18.8977 56.0005 18.7057 56.2044 18.7057 56.4443C18.7057 56.6962 18.8977 56.8881 19.1496 56.8881ZM22.7022 58.3991C22.7022 57.8234 22.5583 57.6075 22.1503 57.6075C21.6464 57.6075 21.1785 58.1472 20.7106 58.7949L21.7184 56.0961L21.6584 56.0122L20.4227 56.1561V56.3L20.6626 56.48C20.8716 56.6424 20.811 56.8049 20.633 57.2823L20.6146 57.3316L19.5229 60.1863C19.4269 60.4262 19.3189 60.7141 19.3189 60.7861C19.3189 61.1219 19.7748 61.4458 20.1947 61.4458C21.1305 61.4578 22.7022 59.7305 22.7022 58.3991ZM33.1042 57.1757L34.22 56.1561V56.0122H33.4761L32.8163 57.1757H33.1042ZM33.1765 60.0904H33.4164C32.9605 60.942 32.4086 61.4578 31.8807 61.4458C31.4248 61.4458 31.1369 61.1219 31.1369 60.5102C31.1369 59.2148 32.1927 57.5955 33.1165 57.5955C33.6444 57.5955 34.1123 57.9913 33.7284 58.9029L31.7727 59.5506C31.7368 59.7185 31.7128 59.9105 31.7128 60.0904C31.7128 60.5342 31.8807 60.7381 32.2167 60.7381C32.5406 60.7381 32.8765 60.4502 33.1765 60.0904ZM33.1153 58.795C33.2353 58.3392 33.0073 58.1353 32.7434 58.1353C32.4555 58.1353 32.0955 58.5551 31.9036 59.1188L33.1153 58.795ZM29.5747 58.16H28.9268V57.8601L29.7306 57.7521L30.4025 56.7326H30.7744L30.4145 57.7521H31.3623L31.2423 58.16H30.2705L29.3227 60.8108C29.7546 60.7388 30.3305 60.331 30.5945 59.9592H30.7744C30.4385 60.8468 29.5627 61.4705 28.8308 61.4705C28.5789 61.4705 28.4469 61.2306 28.5429 60.9907L29.5747 58.16ZM28.5931 58.4718C28.7251 58.016 28.6531 57.6082 28.3052 57.6082C27.8713 57.6082 27.7354 57.8947 27.3149 58.7814L27.2854 58.8436V58.3159C27.2854 57.944 27.1654 57.6082 26.8295 57.6082C26.4336 57.6082 26.0736 58.2199 25.7977 58.8316H25.9776C26.1696 58.5558 26.3496 58.3878 26.4815 58.3878C26.6495 58.3878 26.7455 58.6517 26.4815 59.2275L25.7137 60.9307C25.5697 61.2546 25.7257 61.4585 26.0376 61.4585C26.2296 61.4585 26.3136 61.4105 26.3976 61.2066L27.1534 59.2155C27.3694 58.9516 27.5613 58.7237 27.8013 58.4718H28.5931ZM24.7902 58.795C24.9101 58.3392 24.6822 58.1353 24.4182 58.1353C24.1303 58.1353 23.7823 58.5551 23.5784 59.1188L24.7902 58.795ZM25.0893 60.0904H24.8494C24.5495 60.4502 24.2135 60.7381 23.8896 60.7381C23.5536 60.7381 23.3857 60.5342 23.3857 60.0904C23.3857 59.9105 23.4097 59.7185 23.4457 59.5506L25.4013 58.9029C25.7852 57.9913 25.3293 57.5955 24.7894 57.5955C23.8656 57.5955 22.8098 59.2148 22.8098 60.5102C22.8098 61.1219 23.0977 61.4458 23.5536 61.4458C24.0815 61.4578 24.6334 60.942 25.0893 60.0904ZM20.0512 60.5466C20.0512 60.7025 20.3272 60.8825 20.5191 60.8825C21.299 60.8825 22.0308 59.4791 22.0188 58.6994C22.0188 58.4355 21.8869 58.3276 21.7069 58.3276C21.419 58.3276 20.8911 58.7594 20.5551 59.1672L20.2432 60.0068C20.1352 60.2827 20.0512 60.4986 20.0512 60.5466ZM18.7917 57.6082C18.9357 57.6082 19.1036 57.7521 19.0316 58.016L17.8799 60.8347C18.1798 60.7868 18.4917 60.4989 18.6717 60.235H18.8517C18.5757 60.9427 17.9518 61.4585 17.4119 61.4585C17.268 61.4585 17.076 61.3145 17.172 61.0506L18.2518 58.2319C17.9518 58.2799 17.6399 58.5677 17.4599 58.8316H17.28C17.5559 58.1239 18.2278 57.6082 18.7917 57.6082ZM13.8116 56.3607H16.3911L16.3192 56.5886C15.4433 56.7445 15.2994 56.8165 14.9394 57.788L14.1716 59.8991C13.7997 60.9067 13.8956 61.0266 14.5555 61.0266C15.3708 61.0266 15.9053 60.4342 16.3721 59.9169C16.4068 59.8785 16.4411 59.8405 16.4751 59.8032H16.7751L15.9232 61.3145H12L12.072 61.0986C12.9358 60.9427 13.0798 60.8707 13.4397 59.8991L14.2196 57.7761C14.5675 56.8045 14.4955 56.7325 13.7397 56.5766L13.8116 56.3607Z" fill="black"/>
</svg>